<?xml version="1.0" standalone="no"?><!DOCTYPE svg PUBLIC "-//W3C//DTD SVG 1.1//EN" "http://www.w3.org/Graphics/SVG/1.1/DTD/svg11.dtd"><svg t="1527150974300" class="icon" style="" viewBox="0 0 1024 1024" version="1.1" xmlns="http://www.w3.org/2000/svg" p-id="3802" xmlns:xlink="http://www.w3.org/1999/xlink" width="200" height="200"><defs><style type="text/css"></style></defs><path d="M335.17568 376.87296h325.79584v135.41376H335.17568z" p-id="3803" fill="#2c2c2c"></path><path d="M512.28672 0.73728C229.74464 0.73728 0.69632 229.70368 0.69632 512c0 282.37824 229.04832 511.26272 511.5904 511.26272 282.54208 0 511.5904-228.88448 511.5904-511.26272 0-282.33728-229.04832-511.26272-511.5904-511.26272zM225.81248 187.31008H795.0336v51.8144H225.81248V187.31008z m517.48864 133.03808v243.712H254.03392v-243.712h489.2672z m51.73248 463.91296H197.59104v-53.00224h187.31008c-16.30208-56.5248-37.56032-76.8-63.8976-116.3264l63.8976-22.36416c25.35424 37.4784 47.9232 82.16576 67.9936 138.69056h120.87296c23.9616-56.5248 44.97408-92.03712 63.0784-141.59872l69.4272 28.22144c-18.14528 41.7792-37.76512 56.85248-58.53184 113.37728h147.29216v53.00224z" p-id="3804" fill="#2c2c2c"></path></svg>