<?xml version="1.0" encoding="utf-8"?><svg width="627" height="593" viewBox="0 0 627 593" xmlns="http://www.w3.org/2000/svg" xmlns:xlink="http://www.w3.org/1999/xlink"><view id="arrow" viewBox="0 0 12 9"/><svg width="12" height="9" viewBox="0 0 12 9"><path d="M-.01 9L6 .01 12.01 9H-.01z" fill="#A9A9A9"/></svg><view id="c-arrow" viewBox="12 9 12 16"/><svg width="12" height="16" viewBox="0 0 12 16" x="12" y="9"><path d="M12 15.99L-.01 8 12 .01v15.98z" fill="#434343"/></svg><view id="canada" viewBox="24 25 17 17"/><svg width="17" height="17" viewBox="0 0 17 17" x="24" y="25"><title>Layer 1</title><path fill="red" d="M8.475.287L7.143 2.77c-.15.27-.422.246-.693.095l-.964-.5.72 3.817c.15.697-.335.697-.574.395L3.95 4.693l-.275.957c-.03.126-.17.258-.377.226l-2.13-.447.56 2.03c.12.453.213.64-.12.76l-.76.356 3.664 2.976a.48.48 0 0 1 .167.498l-.322 1.052c1.262-.145 2.392-.364 3.654-.5.11-.01.298.173.297.302L8.14 16.76h.613l-.096-3.847c-.002-.13.167-.322.28-.31 1.26.135 2.39.354 3.652.5l-.32-1.053a.48.48 0 0 1 .166-.498L16.1 8.576l-.757-.356c-.334-.12-.24-.307-.12-.76l.558-2.03-2.127.446c-.208.032-.346-.1-.378-.226l-.273-.957-1.683 1.884c-.24.302-.725.302-.574-.395l.72-3.816-.966.5c-.27.15-.54.175-.692-.095"/></svg><view id="carousel-arrow-next" viewBox="41 42 9 12"/><svg width="9" height="12" viewBox="0 0 9 12" x="41" y="42"><path d="M.01 11.99V.01L8.98 6 .01 11.99z" fill="#A9A9A9"/></svg><view id="cart" viewBox="50 54 16 16"/><svg width="16" height="16" viewBox="0 0 16 16" x="50" y="54"><path d="M12.95 12.64c-.79 0-1.45.56-1.62 1.3H6.11a1.74 1.74 0 0 0-.65-1.03l.66-2.07h8.24l1.63-7.16L2.97 1.93l-1.04-.7.04-.23c0-.55-.44-1-.99-1s-1 .45-1 1c0 .56.45 1.01 1 1.01l.2-.05 1.22.83 2.03 8.05h.61l-.55 1.73-.06-.01c-.94 0-1.71.77-1.71 1.72S3.49 16 4.43 16c.7 0 1.3-.43 1.57-1.03h5.41a1.668 1.668 0 0 0 3.21-.65c0-.92-.75-1.68-1.67-1.68z" fill="#003767"/></svg><view id="checked-circle" viewBox="66 70 20 20"/><svg width="20" height="20" viewBox="0 0 20 20" x="66" y="70"><circle cx="10" cy="10" r="10" fill="#434343"/><path d="M8.58 11.61l5.7-5.62 1.71 1.68-7.41 7.31-4.56-4.5L5.73 8.8l2.85 2.81z" fill="#FFF"/></svg><view id="clear" viewBox="86 90 15 15"/><svg width="15" height="15" viewBox="0 0 15 15" x="86" y="90"><path d="M7.5 15C3.36 15 0 11.64 0 7.5 0 3.36 3.36 0 7.5 0 11.64 0 15 3.36 15 7.5c0 4.14-3.36 7.5-7.5 7.5zM11 5.4L9.6 4 7.5 6.1 5.4 4 4 5.4l2.1 2.1L4 9.6 5.4 11l2.1-2.1L9.6 11 11 9.6 8.9 7.5 11 5.4z" fill="#C3112F"/></svg><view id="clear_big" viewBox="101 105 20 20"/><svg width="20" height="20" viewBox="0 0 20 20" x="101" y="105"><path d="M10 20C4.48 20 0 15.52 0 10S4.48 0 10 0s10 4.48 10 10-4.48 10-10 10zm4.67-12.8L12.8 5.33 10 8.13l-2.8-2.8L5.33 7.2l2.8 2.8-2.8 2.8 1.87 1.87 2.8-2.8 2.8 2.8 1.87-1.87-2.8-2.8 2.8-2.8z" fill="#C3112F"/></svg><view id="edit-pencil" viewBox="121 125 20 20"/><svg width="20" height="20" viewBox="0 0 20 20" x="121" y="125"><path d="M10 20C4.48 20 0 15.52 0 10S4.48 0 10 0s10 4.48 10 10-4.48 10-10 10zm-5.01-5l3.41-.85-1.28-1.27-1.28-1.28-.85 3.4zm9.91-8.08l-1.74-1.73-.07-.07a.384.384 0 0 0-.28-.11.5.5 0 0 0-.37.16l-.02.02-1.7 1.7-4.2 4.19 2.41 2.4 5.92-5.91c.09-.09.15-.21.16-.33a.395.395 0 0 0-.11-.32z" fill="#434343"/></svg><view id="facebook" viewBox="141 145 25 25"/><svg width="25" height="25" viewBox="0 0 25 25" x="141" y="145"><path d="M21 25H4a4 4 0 0 1-4-4V4a4 4 0 0 1 4-4h17a4 4 0 0 1 4 4v17a4 4 0 0 1-4 4zM13.39 4.81c-1.24 0-1.95.47-2.47 1.16-.5.65-.52 1.7-.52 2.38V9.9H8.81v2.3h1.59v7.99h2.99V12.2h2.36l.18-2.3h-2.54v-.73-.82-.25c0-.62.55-.84 1.17-.84.62 0 1.29.19 1.29.19l.39-2.35s-.84-.29-2.85-.29z" fill="#A9A9A9"/></svg><view id="form-checkbox-checked" viewBox="166 170 12 9"/><svg width="12" height="9" viewBox="0 0 12 9" x="166" y="170"><path d="M4.58 5.61l5.7-5.62 1.71 1.68-7.41 7.31-4.56-4.5L1.73 2.8l2.85 2.81z" fill="#434343"/></svg><view id="form-radiobox-checked" viewBox="178 179 10 10"/><svg width="10" height="10" viewBox="0 0 10 10" x="178" y="179"><circle cx="5" cy="5" r="5" fill="#434343"/></svg><view id="help" viewBox="188 189 16 16"/><svg width="16" height="16" viewBox="0 0 16 16" x="188" y="189"><path d="M13.66 2.33a7.985 7.985 0 0 0-11.31 0 8.02 8.02 0 0 0 0 11.34 7.985 7.985 0 0 0 11.31 0c3.12-3.13 3.12-8.21 0-11.34zM7.71 12.88c-.73 0-1.32-.58-1.32-1.3 0-.74.58-1.32 1.32-1.32.72 0 1.3.59 1.3 1.32 0 .71-.6 1.3-1.3 1.3zm.91-4.57v.72c0 .35-.13.49-.49.49h-.94c-.35 0-.49-.14-.49-.49V7.41c0-.41.42-.53.79-.64.09-.02.18-.05.27-.08.48-.17.78-.39.78-.92 0-.18 0-.7-.86-.7-.52 0-1 .2-1.29.32-.16.07-.24.1-.32.1-.17 0-.32-.13-.35-.27l-.33-.86c-.04-.09-.04-.17-.04-.23 0-.64 1.97-.99 2.62-.99 1.64 0 2.75 1.06 2.75 2.64 0 1.71-1.28 2.24-2.1 2.53z" fill="#003767"/></svg><view id="instagram" viewBox="204 205 25 25"/><svg width="25" height="25" viewBox="0 0 25 25" x="204" y="205"><path d="M21 25H4a4 4 0 0 1-4-4V4a4 4 0 0 1 4-4h17a4 4 0 0 1 4 4v17a4 4 0 0 1-4 4zM20 6.93C20 5.87 19.13 5 18.07 5H6.94c-1.06 0-1.93.87-1.93 1.93v11.14c0 1.06.87 1.93 1.93 1.93h11.13c1.06 0 1.93-.87 1.93-1.93V6.93zm-2.29 11.34H7.27c-.32 0-.59-.27-.59-.59v-6.34h1.37c-.12.41-.19.84-.19 1.29 0 2.49 2.09 4.51 4.66 4.51 2.57 0 4.66-2.02 4.66-4.51 0-.45-.07-.88-.2-1.29h1.32v6.34c0 .32-.26.59-.59.59zm-.09-8.64h-1.69a.68.68 0 0 1-.68-.67V7.34c0-.37.31-.67.68-.67h1.69c.37 0 .68.3.68.67v1.62c0 .37-.31.67-.68.67zm-5.1 5.75c-1.66 0-3.01-1.3-3.01-2.91s1.35-2.92 3.01-2.92c1.66 0 3.01 1.31 3.01 2.92 0 1.61-1.35 2.91-3.01 2.91z" fill="#A9A9A9"/></svg><view id="invodo" viewBox="229 230 30 30"/><svg width="30" height="30" viewBox="0 0 30 30" x="229" y="230"><path d="M15 30C6.73 30 0 23.27 0 15S6.73 0 15 0s15 6.73 15 15-6.73 15-15 15zm0-28.05C7.8 1.95 1.95 7.8 1.95 15c0 7.2 5.85 13.05 13.05 13.05 7.2 0 13.05-5.85 13.05-13.05C28.05 7.8 22.2 1.95 15 1.95zm-2.38 19.76c-.01 0-.01 0-.02.01-.59.62-1.59.08-1.59-.81V9.09c0-.9 1-1.44 1.59-.82l.02.02 9.03 5.83c.44.48.44 1.27 0 1.75l-9.03 5.84z" fill="#434343"/></svg><view id="location-mobile" viewBox="259 260 16 20"/><svg width="16" height="20" viewBox="0 0 16 20" x="259" y="260"><path d="M8-.01C3.58-.01-.01 3.35-.01 7.5c0 5 8.01 12.51 8.01 12.51s8.01-7.51 8.01-12.51c0-4.15-3.59-7.51-8.01-7.51zm0 10.96c-2.03 0-3.68-1.55-3.68-3.45 0-1.91 1.65-3.46 3.68-3.46 2.03 0 3.68 1.55 3.68 3.46 0 1.9-1.65 3.45-3.68 3.45z" fill="#003767"/></svg><view id="menu" viewBox="275 280 30 20"/><svg width="30" height="20" viewBox="0 0 30 20" x="275" y="280"><path d="M28 12H2c-1.1 0-2-.9-2-2s.9-2 2-2h26c1.1 0 2 .9 2 2s-.9 2-2 2zm0-8H2C.9 4 0 3.1 0 2s.9-2 2-2h26c1.1 0 2 .9 2 2s-.9 2-2 2zM2 16h26c1.1 0 2 .9 2 2s-.9 2-2 2H2c-1.1 0-2-.9-2-2s.9-2 2-2z" fill="#434343"/></svg><view id="minicart-mobile" viewBox="305 300 22 22"/><svg width="22" height="22" viewBox="0 0 22 22" x="305" y="300"><path d="M17.75 17.18c-1.09 0-1.99.74-2.23 1.81H8.63c-.12-.6-.44-1.06-.89-1.42l.71-2.61h11.33l2.23-9.68L4.13 2.77 2.69 1.76l.07-.32C2.76.64 2.14 0 1.39 0 .63 0 .01.64.01 1.44c0 .79.62 1.44 1.38 1.44l.27-.06L3.34 4l2.79 10.96h.84l-.56 2.11-.09-.01c-1.3 0-2.35 1.11-2.35 2.47C3.97 20.9 5.02 22 6.32 22c.97 0 1.79-.61 2.16-1.48h7.15c.35.87 1.16 1.48 2.12 1.48 1.26 0 2.29-1.08 2.29-2.41s-1.03-2.41-2.29-2.41z" fill="#003767"/></svg><view id="pagination-next-arrow" viewBox="327 322 9 12"/><svg width="9" height="12" viewBox="0 0 9 12" x="327" y="322"><path d="M.01 12V0l9 6-9 6z" fill="#434343"/></svg><view id="pinterest" viewBox="336 334 25 25"/><svg width="25" height="25" viewBox="0 0 25 25" x="336" y="334"><path d="M21 25H4a4 4 0 0 1-4-4V4a4 4 0 0 1 4-4h17a4 4 0 0 1 4 4v17a4 4 0 0 1-4 4zM12.5 4.5c-4.42 0-8 3.58-8 8 0 3.28 1.97 6.09 4.79 7.33-.02-.56 0-1.23.14-1.84.15-.65 1.03-4.36 1.03-4.36s-.26-.51-.26-1.27c0-1.18.69-2.07 1.55-2.07.72 0 1.07.55 1.07 1.2 0 .74-.46 1.83-.7 2.84-.2.85.42 1.55 1.26 1.55 1.52 0 2.54-1.95 2.54-4.26 0-1.75-1.18-3.06-3.33-3.06-2.43 0-3.94 1.81-3.94 3.83 0 .69.21 1.19.53 1.57.15.17.17.24.11.44-.03.15-.12.5-.16.65-.05.2-.22.27-.4.19-1.12-.45-1.64-1.67-1.64-3.05 0-2.27 1.92-5 5.72-5 3.05 0 5.06 2.21 5.06 4.58 0 3.14-1.74 5.49-4.31 5.49-.87 0-1.68-.47-1.96-1 0 0-.46 1.84-.56 2.2-.17.61-.5 1.23-.81 1.71A7.998 7.998 0 0 0 20.5 12.5c0-4.42-3.58-8-8-8z" fill="#A9A9A9"/></svg><view id="plus-circle-black" viewBox="361 359 30 30"/><svg width="30" height="30" viewBox="0 0 30 30" x="361" y="359"><clipPath id="aua"><circle cx="15" cy="15" r="15"/></clipPath><circle cx="15" cy="15" r="15" fill="none" stroke="#A9A9A9" stroke-width="2" clip-path="url(#aua)"/><path d="M22 17h-5v5h-4v-5H8v-4h5V8h4v5h5v4z" fill="#434343"/></svg><view id="plus-circle-blue" viewBox="391 389 30 30"/><svg width="30" height="30" viewBox="0 0 30 30" x="391" y="389"><clipPath id="ava"><circle cx="15" cy="15" r="15"/></clipPath><circle cx="15" cy="15" r="15" fill="none" stroke="#003767" stroke-width="2" clip-path="url(#ava)"/><path d="M22 17h-5v5h-4v-5H8v-4h5V8h4v5h5v4z" fill="#003767"/></svg><view id="plus-sign" viewBox="421 419 13 13"/><svg width="13" height="13" viewBox="0 0 13 13" x="421" y="419"><style>.awstyle0{font-size:25px;font-family:"Rokkitt-Bold";fill:#003767}</style><text transform="translate(6.73 13.87)" class="awstyle0"><tspan x="-7.5" fill="#003767">+</tspan></text></svg><view id="search" viewBox="434 432 17 17"/><svg width="17" height="17" viewBox="0 0 17 17" x="434" y="432"><path d="M16.27 15.21l-1.1 1.06c-.31.29-.81.29-1.11 0l-3.85-3.67c-.81.37-2.11.57-3.14.57-3.7 0-6.55-2.86-6.55-6.39C.52 3.26 3.37.49 7.07.49c3.7 0 6.7 2.77 6.7 6.29 0 1.47-.48 3.06-1.29 4.06l3.79 3.32c.31.29.31.76 0 1.05zM7.15 3.08c-2.19 0-3.96 1.69-3.96 3.78s1.77 3.78 3.96 3.78 3.97-1.69 3.97-3.78-1.78-3.78-3.97-3.78z" fill="#434343"/></svg><view id="size-guide" viewBox="451 449 32 15"/><svg width="32" height="15" viewBox="0 0 32 15" x="451" y="449"><path d="M0 14.99V.01h32v14.98H0zM30 1.98h-3.01V6h-1.97V1.98h-8.03V6h-1.98V1.98H6.99V6H5.01V1.98h-3v11.01H30V1.98zm-18 8.03H9.99V1.99H12v8.02zm10.01 0H20V1.99h2.01v8.02z" fill="#A9A9A9"/></svg><view id="store_locator" viewBox="483 464 13 16"/><svg width="13" height="16" viewBox="0 0 13 16" x="483" y="464"><path d="M6.5-.01C2.91-.01-.01 2.68-.01 6c0 4 6.51 10.01 6.51 10.01S13.01 10 13.01 6c0-3.32-2.92-6.01-6.51-6.01zm0 8.77C4.85 8.76 3.51 7.52 3.51 6c0-1.53 1.34-2.76 2.99-2.76 1.65 0 2.99 1.23 2.99 2.76 0 1.52-1.34 2.76-2.99 2.76z" fill="#003767"/></svg><view id="tool_tip_icon" viewBox="496 480 16 16"/><svg width="16" height="16" viewBox="0 0 16 16" x="496" y="480"><path d="M13.66 2.33a7.985 7.985 0 0 0-11.31 0 8.02 8.02 0 0 0 0 11.34 7.985 7.985 0 0 0 11.31 0c3.12-3.13 3.12-8.21 0-11.34zM7.71 12.88c-.73 0-1.32-.58-1.32-1.3 0-.74.58-1.32 1.32-1.32.72 0 1.3.59 1.3 1.32 0 .71-.6 1.3-1.3 1.3zm.91-4.57v.72c0 .35-.13.49-.49.49h-.94c-.35 0-.49-.14-.49-.49V7.41c0-.41.42-.53.79-.64.09-.02.18-.05.27-.08.48-.17.78-.39.78-.92 0-.18 0-.7-.86-.7-.52 0-1 .2-1.29.32-.16.07-.24.1-.32.1-.17 0-.32-.13-.35-.27l-.33-.85c-.04-.1-.04-.18-.04-.24 0-.64 1.97-.99 2.62-.99 1.64 0 2.75 1.06 2.75 2.64 0 1.71-1.28 2.24-2.1 2.53z" fill="#A9A9A9"/></svg><view id="triangle-white" viewBox="512 496 20 10"/><svg width="20" height="10" viewBox="0 0 20 10" x="512" y="496"><path stroke="null" d="M.044 10.012L10.01.207l9.963 9.805H.043z" fill="#fff"/></svg><view id="twitter" viewBox="532 506 25 25"/><svg width="25" height="25" viewBox="0 0 25 25" x="532" y="506"><path d="M21 25H4a4 4 0 0 1-4-4V4a4 4 0 0 1 4-4h17a4 4 0 0 1 4 4v17a4 4 0 0 1-4 4zM19.11 7.02c-.56.33-1.17.57-1.83.7-.52-.56-1.27-.91-2.09-.91a2.87 2.87 0 0 0-2.87 2.87c0 .23.02.45.07.66a8.125 8.125 0 0 1-5.91-3c-.25.42-.39.92-.39 1.44 0 1 .51 1.88 1.28 2.39a2.72 2.72 0 0 1-1.3-.36v.04c0 1.39.99 2.55 2.3 2.81-.24.07-.5.1-.76.1-.18 0-.36-.01-.54-.05a2.898 2.898 0 0 0 2.68 2A5.75 5.75 0 0 1 5.5 16.9c1.27.81 2.78 1.29 4.4 1.29 5.28 0 8.17-4.38 8.17-8.17 0-.13 0-.25-.01-.37a5.79 5.79 0 0 0 1.43-1.49c-.51.23-1.06.38-1.65.45.6-.35 1.05-.92 1.27-1.59z" fill="#A9A9A9"/></svg><view id="user" viewBox="557 531 17 16"/><svg width="17" height="16" viewBox="0 0 17 16" x="557" y="531"><path d="M7.87.03S7.3 0 9.04 0c2.66 0 2.98 3.03 2.98 3.03s.03 3.19.03 3.94S10.78 8.22 11.01 8c.03-.03 0 2 0 2l5.1 4v2H.93L.9 14.03l5.06-4.06V8s-1.01-.09-1.01-1.03V3.03s.38-3 2.92-3z" fill="#003767"/></svg><view id="white-checked-big" viewBox="574 547 16 12"/><svg width="16" height="12" viewBox="0 0 16 12" x="574" y="547"><path d="M6.5 7.28L13.57.21l2.12 2.12-9.19 9.19L.84 5.87l2.12-2.13L6.5 7.28z" fill="#FFF"/></svg><view id="white-checkmark" viewBox="590 559 12 9"/><svg width="12" height="9" viewBox="0 0 12 9" x="590" y="559"><path d="M4.58 5.61l5.7-5.62 1.71 1.68-7.41 7.31-4.56-4.5L1.73 2.8l2.85 2.81z" fill="#FFF"/></svg><view id="youtube" viewBox="602 568 25 25"/><svg width="25" height="25" viewBox="0 0 25 25" x="602" y="568"><path d="M21 25H4a4 4 0 0 1-4-4V4a4 4 0 0 1 4-4h17a4 4 0 0 1 4 4v17a4 4 0 0 1-4 4zM19.83 8.88c-.08-.91-.89-1.69-1.76-1.74-3.72-.19-7.45-.19-11.18 0-.87.05-1.68.83-1.76 1.74-.2 2.4-.2 4.8 0 7.21.08.9.89 1.69 1.76 1.74 3.73.19 7.46.19 11.18 0 .87-.05 1.68-.84 1.76-1.74.2-2.41.2-4.81 0-7.21zm-8.84 6.1v-.01-4.95-.01L15 12.44h-.01l.01.01-4.01 2.53z" fill="#A9A9A9"/></svg></svg>