<?xml version="1.0" standalone="no"?><!DOCTYPE svg PUBLIC "-//W3C//DTD SVG 1.1//EN" "http://www.w3.org/Graphics/SVG/1.1/DTD/svg11.dtd"><svg t="1527151566924" class="icon" style="" viewBox="0 0 1024 1024" version="1.1" xmlns="http://www.w3.org/2000/svg" p-id="4521" xmlns:xlink="http://www.w3.org/1999/xlink" width="200" height="200"><defs><style type="text/css"></style></defs><path d="M357.582979 599.965957a49.293617 49.293617 0 0 0-44.119149 46.570213 37.582979 37.582979 0 0 0 46.570213 33.225532 49.838298 49.838298 0 0 0 46.297872-44.119149c-0.27234-21.514894-19.33617-38.4-48.748936-35.676596zM422.67234 582.26383a20.153191 20.153191 0 0 0-5.719149 27.234042 16.068085 16.068085 0 0 0 23.965958 2.178724 21.514894 21.514894 0 0 0 7.080851-27.234043 16.612766 16.612766 0 0 0-25.32766-2.178723z" p-id="4522" fill="#2c2c2c"></path><path d="M512.27234 0a512 512 0 1 0 512.272341 512.27234A512.27234 512.27234 0 0 0 512.27234 0z m279.965958 640.544681c-56.374468 119.829787-242.655319 178.382979-381.276596 167.489362-130.995745-10.348936-299.574468-54.468085-317.004255-212.425532 0 0-9.259574-71.897872 60.459574-164.765958 0 0 100.221277-139.982979 217.872341-179.744681s130.451064 27.234043 130.451064 67.268085c-6.26383 33.770213-17.702128 54.468085 27.234042 40.034043 0 0 114.92766-54.468085 163.404255-5.991489 38.12766 38.12766 6.26383 90.689362 6.26383 90.689361s-15.795745 17.429787 16.612766 23.965958 132.357447 53.378723 75.982979 173.480851z m-113.293617-331.165958a22.604255 22.604255 0 0 1 0-45.20851s140.8-27.234043 123.914893 125.276596a9.804255 9.804255 0 0 1 0 2.451063 22.604255 22.604255 0 0 1-44.93617-3.540425s22.059574-101.310638-78.978723-78.978724z m237.753191 105.395745c-3.812766 54.468085-16.340426 35.404255-31.591489 35.404255s-32.680851-8.987234-32.680851-27.234042a72.987234 72.987234 0 0 1 6.53617-28.868085 142.706383 142.706383 0 0 0-10.076596-108.93617 171.846809 171.846809 0 0 0-163.404255-79.795745 174.842553 174.842553 0 0 1-29.685106 7.353191 32.680851 32.680851 0 0 1-8.987234-64h2.995744A239.114894 239.114894 0 0 1 762.553191 138.348936c87.148936 20.425532 206.706383 112.476596 152.782979 275.880851z" p-id="4523" fill="#2c2c2c"></path><path d="M421.855319 438.468085c-136.170213 6.26383-247.557447 79.523404-247.557447 171.029787s110.570213 160.13617 247.557447 153.6 247.829787-92.051064 247.829787-183.285106-110.842553-147.608511-247.829787-141.344681z m93.140426 230.12766a159.591489 159.591489 0 0 1-205.344681 37.038298 71.353191 71.353191 0 0 1-37.038298-61.548937 129.361702 129.361702 0 0 1 121.73617-145.157446c138.076596-16.068085 162.587234 115.47234 120.646809 169.668085z" p-id="4524" fill="#2c2c2c"></path></svg>