<?xml version="1.0" standalone="no"?><!DOCTYPE svg PUBLIC "-//W3C//DTD SVG 1.1//EN" "http://www.w3.org/Graphics/SVG/1.1/DTD/svg11.dtd"><svg t="1527151911735" class="icon" style="" viewBox="0 0 1024 1024" version="1.1" xmlns="http://www.w3.org/2000/svg" p-id="6963" xmlns:xlink="http://www.w3.org/1999/xlink" width="200" height="200"><defs><style type="text/css"></style></defs><path d="M501.55102 405.420408c14.628571 0 27.167347-12.538776 27.167347-27.167347 0-15.673469-12.538776-27.167347-27.167347-27.167347-14.628571 0-27.167347 12.538776-27.167347 27.167347 0 14.628571 11.493878 27.167347 27.167347 27.167347z m-171.363265-55.379592c-14.628571 0-27.167347 12.538776-27.167347 27.167347 0 15.673469 12.538776 27.167347 27.167347 27.167347 14.628571 0 27.167347-12.538776 27.167347-27.167347 0-14.628571-12.538776-27.167347-27.167347-27.167347z m225.697959 150.465306c-14.628571 0-27.167347 12.538776-27.167347 27.167347 0 15.673469 12.538776 27.167347 27.167347 27.167347s27.167347-12.538776 27.167347-27.167347c0-14.628571-12.538776-27.167347-27.167347-27.167347z m140.016327 0c-14.628571 0-27.167347 12.538776-27.167347 27.167347 0 15.673469 12.538776 27.167347 27.167347 27.167347 14.628571 0 27.167347-12.538776 27.167347-27.167347 0-14.628571-12.538776-27.167347-27.167347-27.167347zM506.77551 36.571429c-260.179592 0-470.204082 210.02449-470.204081 470.204081s210.02449 470.204082 470.204081 470.204082 470.204082-210.02449 470.204082-470.204082-210.02449-470.204082-470.204082-470.204081z m-89.861224 599.771428c-29.257143 0-57.469388-5.22449-82.546939-13.583673l-61.64898 41.795918c-21.942857 9.404082-15.673469-11.493878-15.673469-11.493878l16.718367-62.693877c-49.110204-35.526531-80.457143-89.861224-80.457143-149.420408 0-107.62449 100.310204-195.395918 223.608164-195.395919 112.84898 0 205.844898 72.097959 221.518367 167.183674h-12.538775C512 411.689796 419.004082 494.236735 419.004082 595.591837c0 14.628571 2.089796 28.212245 5.224489 41.795918-2.089796-1.044898-4.179592-1.044898-7.314285-1.044898z m337.502041 85.681633l12.538775 47.020408c1.044898 15.673469-10.44898 7.314286-10.44898 7.314286l-43.885714-30.302041c-26.122449 11.493878-55.379592 17.763265-85.681632 17.763265-90.906122 0-167.183673-54.334694-188.081633-128.522449-4.179592-12.538776-6.269388-26.122449-6.269388-40.75102 0-92.995918 86.726531-169.273469 193.306123-169.27347h13.583673c100.310204 6.269388 179.722449 79.412245 179.722449 168.228572 1.044898 52.244898-24.032653 97.17551-64.783673 128.522449z" p-id="6964" fill="#2c2c2c"></path></svg>